# xmcd
#
# Track frame offsets:
#	150
#	12550
#	28830
#	47567
#	64170
#	81605
#	95302
#	111767
#	132292
#
# Disc length: 2000 seconds
#
# Revision: 0
# Processed by: cddbd v1.5.2PL0 Copyright (c) Steve Scherf et al.
# Submitted via: EasyCDDAExtractor 10.0.6.1
#
DISCID=7807ce09
DTITLE=Various Artist - Skyvision Music Group
DYEAR=1997
DGENRE=Gospel
TTITLE0=The Sullivan Family - Never Alone
TTITLE1=The Bibletones - Empty Grave
TTITLE2=Kindred Spirit - Someday, Somehow
TTITLE3=The McFalls - Mama's Yellow Roses
TTITLE4=Huey Long - All That We Need
TTITLE5=Dr, Jim Matthews - Saints
TTITLE6=Terry Joe Terrell - Master, Look My Way
TTITLE7=Country Praise - What Is nab                                          
TTITLE7=                                                            
TTITLE7=                                                            
TTITLE8=jAMES "dAD" mCfALL - i'LL aLWAYS bE yOUR dAD
EXTD=
EXTT0=
EXTT1=
EXTT2=
EXTT3=
EXTT4=
EXTT5=
EXTT6=
EXTT7=
EXTT8=
PLAYORDER=
